<?xml version="1.0" encoding="UTF-8"?>
<svg xmlns="http://www.w3.org/2000/svg"
     width="512"
     height="512"
     viewBox="0 0 512 512">
  <defs>
    <linearGradient id="background" x1="0" y1="0" x2="1" y2="1">
      <stop offset="0" stop-color="#ff8800"/>
      <stop offset="1" stop-color="#ff3300"/>
    </linearGradient>
  </defs>

  <rect width="512"
        height="512"
        rx="110"
        fill="#1e1e2e"/>

  <path fill="url(#background)"
        d="M94 316
           C94 285 119 260 150 260
           C158 260 166 262 173 265
           C186 211 234 171 291 171
           C355 171 408 220 413 283
           C443 286 466 311 466 342
           C466 375 439 402 406 402
           H150
           C119 402 94 377 94 346
           Z"/>

  <g fill="#1e1e2e">
    <rect x="129" y="299" width="10" height="69" rx="5"/>
    <rect x="149" y="280" width="10" height="88" rx="5"/>
    <rect x="169" y="266" width="10" height="102" rx="5"/>
    <rect x="189" y="251" width="10" height="117" rx="5"/>
    <rect x="209" y="237" width="10" height="131" rx="5"/>
    <rect x="229" y="226" width="10" height="142" rx="5"/>
  </g>

  <text x="256"
        y="458"
        text-anchor="middle"
        font-family="monospace"
        font-size="42"
        font-weight="bold"
        fill="#a6ff4d">9000</text>
</svg>
